PathFileType	4	(X/Y/Z)	C:/Users/opensim2020/Desktop/walking_exp_matlab/subject01_walking15_straight_04.trc	
DataRate	CameraRate	NumFrames	NumMarkers	Units	OrigDataRate	OrigDataStartFrame	OrigNumFrames	
100.00	100.00	5	43	mm	100.00	2159	105	
Frame#	Time	LFHD			RFHD			LBHD			RBHD			C7			T10			CLAV			STRN			RBAK			LSHO			LUPA			LELB			LFRM			LWRA			LWRB			LFIN			RSHO			RUPA			RELB			RFRM			RWRA			RWRB			RFIN			LASI			RASI			LPSI			RPSI			LTHI			LKNE			LTIB			LANK			LHEE			LTOE			RTHI			RKNE			RTIB			RANK			RHEE			RTOE			*39			*40			*41			*42			
		X1	Y1	Z1	X2	Y2	Z2	X3	Y3	Z3	X4	Y4	Z4	X5	Y5	Z5	X6	Y6	Z6	X7	Y7	Z7	X8	Y8	Z8	X9	Y9	Z9	X10	Y10	Z10	X11	Y11	Z11	X12	Y12	Z12	X13	Y13	Z13	X14	Y14	Z14	X15	Y15	Z15	X16	Y16	Z16	X17	Y17	Z17	X18	Y18	Z18	X19	Y19	Z19	X20	Y20	Z20	X21	Y21	Z21	X22	Y22	Z22	X23	Y23	Z23	X24	Y24	Z24	X25	Y25	Z25	X26	Y26	Z26	X27	Y27	Z27	X28	Y28	Z28	X29	Y29	Z29	X30	Y30	Z30	X31	Y31	Z31	X32	Y32	Z32	X33	Y33	Z33	X34	Y34	Z34	X35	Y35	Z35	X36	Y36	Z36	X37	Y37	Z37	X38	Y38	Z38	X39	Y39	Z39	X40	Y40	Z40	X41	Y41	Z41	X42	Y42	Z42	X43	Y43	Z43	

79	0.780	-963.77472	-230.13860	1659.61719	-1061.57251	-287.75745	1664.89343	-1020.17255	-123.38615	1627.82068	-1125.16675	-182.32730	1632.86768	-1054.16113	-86.04729	1428.69421	-1065.68201	-47.56012	1134.59033	-1041.78821	-230.37146	1361.34546	-1035.28772	-273.04166	1206.68701	-1134.28308	-35.16732	1236.39319	-887.69763	-153.93988	1394.52246	-803.15912	-110.69756	1215.99011	-796.85712	-100.30267	1061.22620	-776.09937	-179.75798	973.35870	-793.96930	-301.95117	910.00177	-776.18542	-255.48137	877.75360	-761.95471	-327.57431	839.50592	-1197.46057	-178.74954	1393.74084	-1304.28870	-107.90369	1201.55725	-1312.19727	-99.49377	1077.68396	-1347.24744	-111.81971	960.09564	-1330.97571	-173.08369	831.05865	-1371.46521	-132.38321	840.72522	-1378.28357	-160.30728	759.36426	-949.43268	-215.01273	925.83612	-1165.04529	-235.80653	935.79089	-1018.79651	-36.51863	934.40619	-1163.77234	-50.58694	944.41748	-890.58826	-221.12708	591.41077	-897.70203	-220.93555	458.64423	-904.76129	-72.65732	351.58743	-969.74341	94.37123	213.38362	-1030.01831	135.50757	227.24254	-973.91901	40.43171	75.61788	-1225.68225	-223.69360	600.36340	-1197.20947	-254.07129	444.16415	-1212.47437	-196.27635	276.28049	-1166.42114	-149.50665	76.15709	-1124.41357	-91.60269	41.08052	-1149.76489	-286.47421	33.91982	-1043.76294	-271.72974	1699.05444	-3102.03125	1973.19495	1023.51147	-3140.64355	2012.60437	1022.17896			 
80	0.790	-962.55902	-243.64122	1660.47107	-1060.05334	-301.77011	1665.64148	-1020.73126	-137.13754	1629.26880	-1124.18262	-196.55812	1633.94226	-1053.77856	-99.51317	1429.97058	-1065.78955	-60.61837	1135.88232	-1040.60669	-243.50119	1362.43884	-1034.23486	-285.88809	1207.64368	-1134.56213	-48.70928	1237.86938	-886.89160	-166.28311	1395.52637	-802.94684	-121.29024	1216.89648	-797.76990	-109.27346	1062.33960	-776.64435	-185.20680	971.33234	-792.75134	-305.32117	903.28040	-776.84985	-256.84656	872.76825	-761.42584	-327.00851	831.00073	-1196.49182	-192.73920	1395.22681	-1304.30908	-124.51981	1202.67175	-1312.47778	-117.69318	1078.42029	-1346.65540	-134.12950	960.76141	-1329.39893	-200.03275	834.30005	-1369.60498	-159.44235	841.98102	-1376.08960	-190.47450	761.87543	-949.77863	-228.20721	927.52576	-1165.21533	-248.49652	936.87354	-1017.76740	-49.60894	935.92670	-1162.57959	-63.12453	945.84332	-889.05261	-241.20171	594.50049	-896.67175	-244.26393	461.58078	-905.70355	-98.32400	352.03683	-972.02917	62.69460	207.35893	-1032.85803	104.72935	218.34207	-972.17645	0.14392	74.54667	-1225.14014	-231.91614	600.50568	-1196.52478	-258.51038	443.64105	-1212.04053	-198.66945	276.52039	-1166.25183	-149.84305	76.58115	-1124.42383	-91.68891	41.92789	-1149.70923	-286.58539	33.85785	-1042.26721	-285.73813	1699.96838	-3101.96069	1973.19043	1023.52081	-3140.64087	2012.51062	1022.02802			 
81	0.800	-961.13397	-257.03192	1661.10168	-1058.36560	-315.67615	1666.32458	-1019.83905	-150.77368	1630.16992	-1122.99536	-210.74400	1634.86023	-1053.61926	-112.81319	1431.14551	-1065.75122	-73.67627	1136.98206	-1039.49438	-256.62079	1363.34619	-1033.27734	-298.80148	1208.49377	-1134.92285	-62.28920	1239.21594	-886.12555	-178.71181	1396.33008	-802.73212	-132.20651	1217.70398	-798.35687	-118.18610	1063.41663	-777.18903	-190.46602	969.52264	-791.41431	-308.24289	896.76715	-777.57391	-258.16968	868.08405	-760.88922	-325.87015	822.98346	-1195.65918	-206.62274	1396.70801	-1304.23706	-140.84261	1203.75696	-1312.67285	-135.78366	1079.14441	-1345.89172	-156.48438	961.58990	-1327.29712	-226.79466	837.71674	-1367.83337	-186.37999	843.60138	-1373.73877	-220.70795	764.98193	-950.14612	-241.18105	929.07422	-1165.24890	-261.20483	937.80878	-1016.54004	-62.59541	937.16858	-1161.19409	-75.65927	947.17535	-887.58588	-260.84338	597.47308	-895.73474	-266.99985	464.59390	-906.56775	-124.04165	351.49570	-973.45746	30.66896	200.71292	-1035.24878	73.10867	208.34845	-970.26996	-40.02966	72.50539	-1224.45618	-239.48946	601.09375	-1195.77112	-262.61627	443.53879	-1211.46631	-200.66008	276.50201	-1166.07568	-150.16110	77.07780	-1124.69910	-91.65971	42.84779	-1149.68616	-286.69058	33.83882	-1040.49817	-299.68616	1700.52063	-3101.87720	1973.18591	1023.81445	-3140.73047	2012.49377	1022.01831			 
82	0.810	-959.50568	-270.41843	1661.66406	-1056.40259	-329.48566	1666.92920	-1018.80133	-164.38495	1630.91467	-1121.66284	-224.83162	1635.68323	-1052.64929	-126.20749	1432.01953	-1065.76978	-86.63943	1137.96765	-1038.30518	-269.63770	1364.17163	-1032.21777	-311.55759	1209.24341	-1135.26282	-75.90973	1240.43945	-885.29333	-191.09206	1397.02783	-802.46210	-143.24211	1218.26123	-799.78497	-127.72408	1064.26233	-777.72357	-195.64140	967.95520	-790.10834	-310.82446	890.33124	-778.54102	-259.10492	863.77386	-760.30298	-324.61575	815.34479	-1194.37500	-220.52582	1397.90137	-1304.07202	-156.96970	1204.81726	-1312.55188	-153.93855	1079.68542	-1344.96765	-178.87592	962.49506	-1324.91406	-253.73590	841.78070	-1365.69543	-213.36682	845.62677	-1370.93884	-251.04170	768.52167	-950.01178	-254.62592	930.68958	-1165.01135	-273.79858	938.63159	-1015.37280	-75.48576	938.30035	-1159.91748	-88.26447	948.54279	-886.18030	-279.98364	600.50195	-894.88586	-289.26907	467.83704	-907.17529	-150.13943	350.14874	-975.23785	-2.50086	192.92258	-1037.29773	40.26482	197.48119	-967.68494	-80.06633	69.89851	-1223.78345	-246.42220	601.44977	-1195.61304	-266.31680	442.80927	-1211.53491	-202.54744	276.99969	-1166.01758	-150.53992	77.62709	-1124.14063	-91.46349	43.67113	-1149.62927	-286.82739	33.80562	-1038.63635	-313.43942	1701.26660	-3101.86694	1973.21533	1023.76373	-3140.72144	2012.54260	1022.00909			 
83	0.820	-957.84344	-283.72580	1661.98303	-1054.45129	-343.33801	1667.45874	-1017.68457	-177.89101	1631.51526	-1120.11060	-238.89494	1636.35083	-1052.50537	-139.37492	1432.84558	-1065.71375	-99.68825	1138.82153	-1037.07556	-282.75494	1364.85034	-1031.18323	-324.37527	1209.77319	-1135.58923	-89.47985	1241.53125	-884.38904	-203.56865	1397.54761	-802.20465	-154.49950	1218.71326	-800.52411	-136.13759	1065.32361	-778.29187	-200.62238	966.35938	-788.67542	-313.16257	884.43475	-779.13013	-259.96741	859.84100	-760.15173	-322.40820	808.10858	-1193.32922	-234.32700	1399.14941	-1303.86401	-173.00951	1205.78979	-1312.47925	-171.72194	1080.23596	-1343.91211	-201.25591	963.54987	-1322.35852	-280.63184	846.05988	-1363.33032	-240.52812	847.73621	-1367.91309	-281.33359	772.58411	-949.77380	-267.70944	931.99493	-1164.72681	-286.46732	939.15668	-1014.29706	-88.31755	939.22473	-1158.60583	-100.93633	949.74182	-884.81537	-298.75354	603.62866	-894.27325	-311.05917	471.20831	-907.57709	-176.54834	347.85266	-975.97198	-35.93774	184.48886	-1038.91772	6.40894	185.84360	-964.88623	-120.97980	67.36242	-1223.05359	-253.09402	601.60077	-1195.52417	-269.79651	442.45932	-1211.42688	-204.43867	277.40173	-1165.83191	-150.87912	78.24311	-1123.51770	-92.13508	44.61392	-1149.54333	-287.07333	33.80868	-1036.70532	-327.21552	1701.68799	-3102.11475	1973.11243	1023.89874	-3140.72021	2012.51306	1022.12134			 
